<svg version="1.0" xmlns="http://www.w3.org/2000/svg"
     width="213.000000pt" height="209.000000pt" viewBox="0 0 100 100" preserveAspectRatio="xMidYMid meet">

    <g id="logo">
        <path style="opacity:1" fill="#04c3ef"
              d="M 64.5,33.5 C 66.7925,33.2436 68.9592,33.5769 71,34.5C 71.4983,37.8168 71.665,41.1501 71.5,44.5C 66.2429,44.2674 61.7429,45.934 58,49.5C 57.1368,62.5457 55.8035,75.5457 54,88.5C 51.4162,94.5836 47.2495,99.2503 41.5,102.5C 48.8479,106.35 53.3479,112.35 55,120.5C 55.9169,132.188 56.9169,143.855 58,155.5C 61.6033,159.367 66.1033,161.034 71.5,160.5C 71.5,164.167 71.5,167.833 71.5,171.5C 63.1993,172.207 55.6993,170.207 49,165.5C 47.0922,162.785 45.7589,159.785 45,156.5C 43.8474,145.537 43.1807,134.537 43,123.5C 42.0636,114.061 36.897,109.394 27.5,109.5C 27.5,104.833 27.5,100.167 27.5,95.5C 36.8692,95.6362 42.0358,90.9695 43,81.5C 43.1807,70.4633 43.8474,59.4633 45,48.5C 47.892,38.7712 54.392,33.7712 64.5,33.5 Z"/>
        <path style="opacity:1" fill="#1ac2ed"
              d="M 140.5,33.5 C 145.177,33.8345 149.844,34.3345 154.5,35C 162.447,38.037 166.613,43.8704 167,52.5C 167.333,61.1667 167.667,69.8333 168,78.5C 168.264,83.962 170.097,88.7953 173.5,93C 176.536,95.0063 179.869,95.8396 183.5,95.5C 183.5,100.167 183.5,104.833 183.5,109.5C 173.364,110.346 168.197,116.012 168,126.5C 167.667,135.167 167.333,143.833 167,152.5C 164.627,167.622 155.793,173.788 140.5,171C 139.544,167.606 139.211,164.106 139.5,160.5C 143.973,160.673 148.14,159.673 152,157.5C 152.667,156.167 153.333,154.833 154,153.5C 154.17,141.748 155.17,130.081 157,118.5C 159.018,111.454 163.184,106.12 169.5,102.5C 162.917,99.0803 158.75,93.747 157,86.5C 155.197,75.2513 154.197,63.918 154,52.5C 153.529,50.7536 152.862,49.087 152,47.5C 148.093,45.5508 143.927,44.5508 139.5,44.5C 139.244,40.7307 139.577,37.0641 140.5,33.5 Z"/>
        <path style="opacity:1" fill="#0dc3ee"
              d="M 101.5,50.5 C 114.062,48.5225 124.895,51.8558 134,60.5C 143.155,73.0183 143.822,86.0183 136,99.5C 132.749,103.422 128.916,106.588 124.5,109C 136.333,114.167 144.833,122.667 150,134.5C 150.667,136.167 150.667,137.833 150,139.5C 130.51,152.727 109.343,156.227 86.5,150C 81.0839,147.861 75.7505,145.528 70.5,143C 69.4258,142.261 68.7591,141.261 68.5,140C 70.3858,132.728 73.7191,126.228 78.5,120.5C 74.3407,116.51 70.0074,112.676 65.5,109C 63.2256,107.235 61.5589,105.068 60.5,102.5C 60.7282,100.603 61.7282,99.2697 63.5,98.5C 70.5364,104.04 77.703,109.374 85,114.5C 88.4054,112.547 91.9054,110.713 95.5,109C 81.9087,101.987 76.0754,90.8204 78,75.5C 81.5805,63.0884 89.4139,54.755 101.5,50.5 Z M 127.5,71.5 C 128.167,72.8333 129.167,73.8333 130.5,74.5C 131.373,78.7685 131.706,83.1018 131.5,87.5C 130.094,87.9731 129.427,88.9731 129.5,90.5C 127.973,90.427 126.973,91.0937 126.5,92.5C 114.833,92.5 103.167,92.5 91.5,92.5C 91.0269,91.0937 90.0269,90.427 88.5,90.5C 88.573,88.9731 87.9063,87.9731 86.5,87.5C 86.3347,83.8183 86.5014,80.1516 87,76.5C 87.7845,74.714 88.9512,73.214 90.5,72C 102.795,70.1682 115.128,70.0015 127.5,71.5 Z"/>
        <path style="opacity:0.773" fill="#78c9d6"
              d="M 127.5,71.5 C 129.5,71.5 130.5,72.5 130.5,74.5C 129.167,73.8333 128.167,72.8333 127.5,71.5 Z"/>
        <path style="opacity:1" fill="#00c4f0"
              d="M 97.5,77.5 C 103.191,77.5544 104.858,80.2211 102.5,85.5C 98.5401,88.1891 96.2067,87.0224 95.5,82C 95.5186,80.167 96.1852,78.667 97.5,77.5 Z"/>
        <path style="opacity:1" fill="#00c4f0"
              d="M 114.5,77.5 C 118.789,76.4832 121.122,78.1498 121.5,82.5C 120.233,86.3946 117.733,87.3946 114,85.5C 113.278,82.7395 113.445,80.0728 114.5,77.5 Z"/>
        <path style="opacity:0.353" fill="#94d4d7"
              d="M 86.5,87.5 C 87.9063,87.9731 88.573,88.9731 88.5,90.5C 87.0937,90.0269 86.427,89.0269 86.5,87.5 Z"/>
        <path style="opacity:0.376" fill="#90d4d8"
              d="M 131.5,87.5 C 131.573,89.0269 130.906,90.0269 129.5,90.5C 129.427,88.9731 130.094,87.9731 131.5,87.5 Z"/>
        <path style="opacity:0.282" fill="#9bd7d9"
              d="M 88.5,90.5 C 90.0269,90.427 91.0269,91.0937 91.5,92.5C 89.9731,92.573 88.9731,91.9063 88.5,90.5 Z"/>
        <path style="opacity:0.569" fill="#87cfd6"
              d="M 129.5,90.5 C 129.027,91.9063 128.027,92.573 126.5,92.5C 126.973,91.0937 127.973,90.427 129.5,90.5 Z"/>
    </g>
    <!--    //TODO-->
    <g id="react">
        <path d="M92.9 32.7C91.7 32.28 90.49 31.9 89.26 31.55C89.47 30.71 89.66 29.87 89.83 29.06C92.58 15.64 90.78 4.84 84.63 1.28C78.74 -2.13 69.1 1.42 59.36 9.93C58.4 10.77 57.46 11.63 56.55 12.52C55.93 11.93 55.31 11.35 54.68 10.78C44.47 1.69 34.24 -2.14 28.1 1.43C22.21 4.85 20.47 15.01 22.95 27.72C23.2 28.98 23.47 30.23 23.78 31.48C22.34 31.89 20.94 32.33 19.6 32.8C7.64 36.98 0 43.54 0 50.35C0 57.38 8.2 64.43 20.66 68.7C21.67 69.04 22.69 69.36 23.72 69.66C23.38 71 23.09 72.35 22.83 73.71C20.47 86.2 22.31 96.12 28.18 99.52C34.25 103.03 44.43 99.42 54.35 90.72C55.15 90.01 55.94 89.29 56.7 88.54C57.7 89.5 58.71 90.43 59.76 91.34C69.36 99.63 78.85 102.98 84.71 99.57C90.77 96.05 92.74 85.39 90.19 72.43C89.98 71.42 89.76 70.4 89.51 69.4C90.22 69.19 90.92 68.97 91.61 68.74C104.56 64.43 112.99 57.47 112.99 50.35C112.99 43.52 105.1 36.91 92.9 32.7ZM90.09 64.14C89.47 64.35 88.84 64.55 88.19 64.74C86.76 60.19 84.83 55.36 82.47 50.37C84.73 45.5 86.58 40.73 87.97 36.22C89.13 36.55 90.25 36.9 91.33 37.28C101.79 40.89 108.16 46.23 108.16 50.35C108.16 54.73 101.28 60.42 90.09 64.14ZM85.45 73.37C86.58 79.1 86.74 84.29 85.99 88.34C85.32 91.98 83.97 94.41 82.29 95.38C78.73 97.45 71.12 94.76 62.91 87.67C61.93 86.83 60.99 85.96 60.06 85.07C63.25 81.57 66.43 77.51 69.54 73C75 72.51 80.16 71.71 84.84 70.63C85.06 71.54 85.27 72.45 85.45 73.37ZM38.52 95.02C35.04 96.25 32.27 96.29 30.6 95.32C27.03 93.26 25.55 85.29 27.57 74.61C27.81 73.35 28.09 72.09 28.4 70.85C33.02 71.87 38.15 72.61 43.62 73.06C46.75 77.47 50.02 81.53 53.32 85.08C52.62 85.77 51.9 86.43 51.17 87.07C46.79 90.92 42.39 93.65 38.52 95.02ZM22.22 64.12C16.71 62.23 12.16 59.77 9.04 57.09C6.24 54.68 4.83 52.29 4.83 50.35C4.83 46.22 10.96 40.95 21.19 37.37C22.43 36.94 23.73 36.53 25.08 36.14C26.49 40.76 28.35 45.59 30.59 50.47C28.32 55.42 26.44 60.32 25.01 64.99C24.07 64.72 23.14 64.43 22.22 64.12ZM27.69 26.79C25.56 15.9 26.97 7.68 30.52 5.62C34.3 3.42 42.66 6.56 51.47 14.41C52.04 14.92 52.61 15.44 53.17 15.98C49.88 19.52 46.64 23.54 43.54 27.93C38.23 28.43 33.14 29.22 28.46 30.28C28.17 29.13 27.92 27.96 27.69 26.79L27.69 26.79ZM76.43 38.87C75.32 36.95 74.17 35.06 72.99 33.2C76.59 33.66 80.05 34.26 83.29 35C82.32 38.14 81.1 41.41 79.68 44.77C78.63 42.78 77.55 40.81 76.43 38.87ZM56.55 19.44C58.78 21.86 61.01 24.56 63.2 27.5C58.75 27.28 54.29 27.28 49.84 27.49C52.04 24.59 54.29 21.89 56.55 19.44ZM36.55 38.9C35.44 40.83 34.37 42.79 33.36 44.77C31.95 41.42 30.75 38.13 29.77 34.95C32.99 34.23 36.43 33.64 40.01 33.19C38.81 35.07 37.66 36.97 36.55 38.9L36.55 38.9ZM40.11 67.85C36.41 67.44 32.92 66.88 29.7 66.17C30.7 62.94 31.93 59.58 33.36 56.16C34.38 58.14 35.45 60.1 36.56 62.03C37.71 64.01 38.9 65.96 40.11 67.85ZM56.68 81.6C54.39 79.12 52.11 76.38 49.88 73.43C52.05 73.52 54.25 73.56 56.5 73.56C58.8 73.56 61.07 73.51 63.32 73.41C61.12 76.41 58.89 79.15 56.68 81.6ZM79.72 55.99C81.23 59.44 82.5 62.78 83.52 65.96C80.24 66.71 76.7 67.32 72.98 67.77C74.17 65.87 75.33 63.94 76.44 61.99C77.58 60.02 78.67 58.01 79.72 55.99ZM72.26 59.57C70.55 62.56 68.74 65.49 66.84 68.35C63.4 68.6 59.95 68.72 56.5 68.72C52.98 68.72 49.56 68.61 46.26 68.39C44.31 65.53 42.47 62.6 40.74 59.6L40.74 59.6C39.02 56.62 37.41 53.57 35.92 50.46C37.41 47.36 39.01 44.31 40.73 41.32L40.73 41.32C42.44 38.34 44.27 35.42 46.21 32.57C49.57 32.31 53.01 32.18 56.49 32.18L56.5 32.18C59.99 32.18 63.44 32.31 66.8 32.57C68.72 35.41 70.54 38.32 72.25 41.3C73.97 44.28 75.59 47.31 77.12 50.39C75.61 53.51 73.99 56.57 72.26 59.57ZM82.22 5.48C86 7.67 87.48 16.5 85.1 28.08C84.95 28.82 84.78 29.57 84.59 30.33C79.9 29.25 74.81 28.44 69.48 27.94C66.38 23.5 63.16 19.47 59.93 15.97C60.78 15.16 61.64 14.36 62.53 13.58C70.87 6.3 78.67 3.42 82.22 5.48ZM56.5 40.22C62.07 40.22 66.58 44.76 66.58 50.35C66.58 55.94 62.07 60.47 56.5 60.47C50.92 60.47 46.41 55.94 46.41 50.35C46.41 44.76 50.92 40.22 56.5 40.22Z"
              fill="#00D8FF" fill-opacity="" fill-rule="nonzero"/>
    </g>

    <g id="js" fill="#b8ff28">
        <path style=" stroke:none;fill-rule:nonzero;fill-opacity:1;" d="M 48.15625 56.332031 C 48.15625 70.488281 49.175781 82.386719 42.128906 89.425781 C 38.164062 93.386719 31.910156 95.71875 24.214844 95.71875 C 11.59375 95.71875 4.582031 89.625 0.109375 81.191406 C 4.417969 78.464844 8.816406 75.832031 13.304688 73.28125 C 15.132812 78.355469 21.3125 84.058594 28.285156 80.546875 C 32.707031 78.320312 32.195312 71.570312 32.195312 64.242188 C 32.195312 49.027344 32.195312 31.476562 32.195312 17.75 C 32.183594 17.523438 32.167969 17.296875 32.359375 17.265625 C 37.625 17.265625 42.890625 17.265625 48.15625 17.265625 C 48.15625 29.496094 48.15625 43.328125 48.15625 56.332031 Z M 88.222656 47.132812 C 84.195312 45.421875 79.1875 43.402344 77.960938 39.707031 C 76.585938 35.5625 78.929688 32.152344 81.542969 30.988281 C 87.285156 28.433594 94.132812 32.644531 95.550781 36.960938 C 99.871094 34.414062 104.179688 31.847656 108.089844 28.890625 C 103.496094 21.324219 96.757812 15.910156 84.476562 16.300781 C 77.714844 16.515625 72.632812 18.628906 68.839844 21.789062 C 65.140625 24.867188 62.28125 29.191406 61.835938 35.347656 C 60.507812 53.769531 74.414062 58.472656 86.265625 63.597656 C 90.003906 65.210938 94.15625 66.84375 95.875 70.054688 C 99.421875 76.675781 93.140625 81.046875 87.734375 81.515625 C 79.050781 82.265625 73.199219 77.230469 69.816406 71.992188 C 65.59375 74.585938 61.003906 76.8125 56.949219 79.578125 C 62.585938 89.402344 71.828125 95.761719 86.265625 95.71875 C 100.996094 95.679688 111.917969 88.640625 112.8125 75.382812 C 114.03125 57.359375 100.410156 52.304688 88.222656 47.132812 Z M 88.222656 47.132812 "/>
    </g>

    <g id="html">
        <path d="M22.13 102L13.7 7.5L106.29 7.5L97.85 101.98L59.94 112.5L22.13 102Z" fill="#E44F26"
              fill-opacity="1.000000" fill-rule="nonzero"/>
        <path d="M60 104.46L90.63 95.97L97.84 15.22L60 15.22L60 104.46Z" fill="#F1662A" fill-opacity="1.000000"
              fill-rule="nonzero"/>
        <path d="M60 50.27L44.66 50.27L43.6 38.4L60 38.4L60 26.81L30.93 26.81L31.21 29.92L34.06 61.86L60 61.86L60 50.27ZM60 80.37L59.94 80.39L47.04 76.9L46.21 67.66L34.57 67.66L36.2 85.86L59.94 92.45L60 92.43L60 80.37Z"
              fill="#EBEBEB" fill-opacity="1.000000" fill-rule="nonzero"/>
        <path d="M59.95 50.27L59.95 61.86L74.23 61.86L72.88 76.9L59.95 80.38L59.95 92.44L83.72 85.86L83.89 83.9L86.61 53.38L86.9 50.27L59.95 50.27ZM59.95 26.81L59.95 38.4L87.95 38.4L88.18 35.8L88.71 29.92L88.99 26.81L59.95 26.81Z"
              fill="#FFFFFF" fill-opacity="1.000000" fill-rule="nonzero"/>
    </g>

    <g id="git">
        <path d="M15.0513 89.6605C23.0898 89.6605 29.6099 83.0208 29.6099 74.8348V60.0091H15.0513C7.01274 60.0091 0.492615 66.6488 0.492615 74.8348C0.492615 83.0208 7.01274 89.6605 15.0513 89.6605Z"
              fill="#0ACF83"/>
        <path d="M0.492615 45.1652C0.492615 36.9792 7.01274 30.3395 15.0513 30.3395H29.6099V60.0091H15.0513C7.01274 59.9909 0.492615 53.3512 0.492615 45.1652Z"
              fill="#A259FF"/>
        <path d="M0.492615 15.4956C0.492615 7.30965 7.01274 0.669922 15.0513 0.669922H29.6099V30.3395H15.0513C7.01274 30.3395 0.492615 23.6816 0.492615 15.4956Z"
              fill="#F24E1E"/>
        <path d="M29.6277 0.669922H44.1864C52.2249 0.669922 58.745 7.30965 58.745 15.4956C58.745 23.6816 52.2249 30.3213 44.1864 30.3213H29.6277V0.669922Z"
              fill="#FF7262"/>
        <path d="M58.7451 45.1652C58.7451 53.3512 52.225 59.9909 44.1865 59.9909C36.1479 59.9909 29.6278 53.3512 29.6278 45.1652C29.6278 36.9792 36.1479 30.3395 44.1865 30.3395C52.225 30.3395 58.7451 36.9792 58.7451 45.1652Z"
              fill="#1ABCFE"/>

    </g>

    <g id="css">
        <path d="M22.13 101.15L13.71 7.43L106.29 7.43L97.85 101.13L59.94 111.56L22.13 101.15Z" fill="#1572B6"
              fill-opacity="1.000000" fill-rule="nonzero"/>
        <path d="M60 103.59L90.63 95.17L97.84 15.1L60 15.1L60 103.59Z" fill="#33A9DC" fill-opacity="1.000000"
              fill-rule="nonzero"/>
        <path d="M60 49.05L75.33 49.05L76.39 37.28L60 37.28L60 25.78L89.06 25.78L88.78 28.87L85.93 60.54L60 60.54L60 49.05Z"
              fill="#FFFFFF" fill-opacity="1.000000" fill-rule="nonzero"/>
        <path d="M60.07 78.9L60.01 78.91L47.11 75.46L46.28 66.29L34.65 66.29L36.27 84.34L60.01 90.87L60.07 90.86L60.07 78.9Z"
              fill="#EBEBEB" fill-opacity="1.000000" fill-rule="nonzero"/>
        <path d="M74.35 60.06L72.95 75.45L60.03 78.91L60.03 90.87L83.79 84.34L83.96 82.4L85.98 60.06L74.35 60.06Z"
              fill="#FFFFFF" fill-opacity="1.000000" fill-rule="nonzero"/>
        <path d="M60.04 25.78L60.04 37.28L32.04 37.28L31.81 34.69L31.28 28.87L31 25.78L60.04 25.78ZM60 49.05L60 60.54L47.25 60.54L47.02 57.96L46.49 52.13L46.21 49.05L60 49.05Z"
              fill="#EBEBEB" fill-opacity="1.000000" fill-rule="nonzero"/>
    </g>

    <g id="github">
        <path d="M44 0C19.69 0 0 19.68 0 44C0 63.47 12.59 79.91 30.08 85.74C32.28 86.13 33.11 84.81 33.11 83.65C33.11 82.61 33.05 79.14 33.05 75.46C22 77.49 19.14 72.76 18.26 70.29C17.76 69.02 15.62 65.12 13.75 64.07C12.21 63.25 10.01 61.21 13.69 61.16C17.16 61.1 19.63 64.35 20.45 65.67C24.42 72.32 30.74 70.45 33.27 69.3C33.66 66.43 34.81 64.51 36.08 63.41C26.29 62.31 16.06 58.52 16.06 41.68C16.06 36.9 17.76 32.94 20.57 29.86C20.12 28.76 18.59 24.25 21.01 18.2C21.01 18.2 24.69 17.04 33.11 22.71C36.63 21.72 40.37 21.23 44.11 21.23C47.85 21.23 51.59 21.72 55.11 22.71C63.52 16.99 67.21 18.2 67.21 18.2C69.62 24.25 68.08 28.76 67.65 29.86C70.45 32.94 72.16 36.84 72.16 41.68C72.16 58.57 61.87 62.31 52.08 63.41C53.68 64.79 55.05 67.43 55.05 71.55C55.05 77.43 55 82.17 55 83.65C55 84.81 55.82 86.18 58.02 85.74C66.75 82.79 74.34 77.18 79.72 69.69C85.1 62.2 87.99 53.21 88 44C88 19.68 68.31 0 44 0Z"
              fill="#FFFEFE" fill-opacity="1.000000" fill-rule="evenodd"/>
    </g>
    <g id='styled'>
        <path d="M68.7673 118.279C68.9473 117.872 69.4015 117.589 69.7315 117.246C74.7666 111.967 79.8446 106.735 84.8111 101.391C86.3653 99.9558 87.5662 98.1804 88.32 96.2036C89.0739 94.2269 89.3601 92.1026 89.1563 89.9968C89.0004 89.0951 88.7958 88.2025 88.5435 87.3229C87.1894 88.6084 85.9296 89.7783 84.6611 90.9567C82.6899 92.7908 80.7273 94.6334 78.739 96.4461C77.5665 97.6415 76.059 98.4531 74.4156 98.7737C72.7721 99.0943 71.0701 98.9087 69.5344 98.2416C67.9797 97.6705 66.627 96.6553 65.6443 95.3221C64.6616 93.9889 64.092 92.3965 64.0064 90.7425C63.9604 90.5297 63.8988 90.3206 63.8222 90.1168C62.3095 91.4024 60.8611 92.5851 59.4256 93.8021L29.5877 119.085C29.382 119.261 29.1591 119.479 28.9663 119.65H68.7459L68.6859 119.612C68.4716 119.462 68.583 118.673 68.7673 118.279Z"
              fill="#FFCEBF"/>
        <path d="M27.1436 118.279C27.4974 117.818 27.9245 117.418 28.4077 117.096L69.7 82.0642C72.5168 79.6731 75.3207 77.2691 78.1118 74.8522C78.4567 74.6118 78.727 74.2791 78.8918 73.8924C79.5594 70.9831 79.654 67.9717 79.1703 65.0263C78.7418 65.3262 78.5104 65.4548 78.3132 65.6648C74.9322 68.6901 71.5683 71.7412 68.1702 74.7494C67.0445 75.8824 65.5885 76.6292 64.0116 76.8825C62.4346 77.1359 60.818 76.8826 59.3941 76.1592C57.9414 75.4734 56.7256 74.3709 55.9014 72.992C55.0773 71.6131 54.682 70.0201 54.766 68.4159V67.0275C54.1447 67.4817 53.6905 67.7859 53.2662 68.1287C36.7396 81.3615 20.2159 94.5842 3.69496 107.797C2.94933 108.393 2.05801 109.721 1.08098 108.431C0.103957 107.141 1.59092 106.61 2.34083 106.01C19.953 91.8774 37.5738 77.7576 55.2031 63.6507C58.0742 61.3496 58.2628 60.3854 56.3944 56.7301L55.2803 57.7757C52.2249 60.6168 49.1353 63.4193 46.1271 66.3075C44.8931 67.4978 43.3476 68.3148 41.6691 68.6641C39.9906 69.0135 38.2476 68.8809 36.6412 68.2818C35.0348 67.6827 33.6306 66.6415 32.5908 65.2784C31.5509 63.9153 30.9178 62.2858 30.7646 60.5782C30.1947 61.0067 29.7019 61.3196 29.2348 61.6838L3.09503 81.9443C2.64419 82.3864 2.13005 82.7591 1.5695 83.0498C1.14643 83.1777 0.692134 83.155 0.283936 82.9856V119.671H27.0922C26.9925 119.451 26.9453 119.21 26.9542 118.969C26.9631 118.727 27.028 118.491 27.1436 118.279Z"
              fill="#FFCEBF"/>
        <path d="M99.5652 1.82096C98.8367 4.20782 98.1297 6.59897 97.4912 9.01154C96.9014 10.7164 96.97 12.5802 97.6836 14.2371C98.3971 15.8941 99.704 17.2246 101.348 17.9676C106.376 20.6107 112.042 21.798 117.709 21.3958V2.22806C117.646 1.80781 117.669 1.37914 117.777 0.968207C117.897 0.73576 118.049 0.520916 118.227 0.329712H99.5481C99.8352 0.663958 99.7366 1.25103 99.5652 1.82096Z"
              fill="#FF6196"/>
        <path d="M62.051 42.9976C61.9621 45.137 61.2137 47.1966 59.9084 48.894C55.2418 54.9179 49.8828 60.3719 43.9417 65.1435C42.9836 66.0304 41.7693 66.591 40.4728 66.745C39.1764 66.8989 37.8646 66.6383 36.7254 66.0005C35.5916 65.5161 34.6356 64.6925 33.9887 63.6428C33.3419 62.5932 33.036 61.369 33.113 60.1384C33.2502 58.627 33.8777 57.202 34.8999 56.0803C41.5434 49.7455 48.7414 44.019 56.4074 38.9695C56.9094 38.5758 57.5226 38.3499 58.1601 38.3237C58.7976 38.2976 59.4272 38.4725 59.9598 38.8238C60.6598 39.2585 61.2258 39.8786 61.5949 40.6153C61.9641 41.352 62.1219 42.1766 62.051 42.9976Z"
              fill="#FF87AF"/>
        <path d="M56.9126 68.97C56.8131 68.0228 56.9347 67.0654 57.2678 66.1731C57.6009 65.2809 58.1365 64.478 58.8324 63.8277C65.3372 57.8281 72.3163 52.3638 79.7013 47.4883C79.9241 47.3468 80.1298 47.2054 80.3741 47.0597C81.0192 46.594 81.8008 46.356 82.5959 46.3832C83.3911 46.4103 84.1546 46.7011 84.7664 47.2097C85.3584 47.7112 85.7772 48.3865 85.9634 49.1396C86.1496 49.8928 86.0936 50.6854 85.8034 51.4049C84.8691 54.5168 83.1448 57.3337 80.7983 59.5811C76.0329 64.2758 71.1753 68.8762 66.2286 73.3795C65.4836 74.1456 64.5051 74.6422 63.4469 74.7911C62.3888 74.9401 61.3111 74.7329 60.3836 74.2022C59.409 73.6958 58.5791 72.9499 57.9719 72.0347C57.3648 71.1194 57.0002 70.0648 56.9126 68.97Z"
              fill="#FF87AF"/>
        <path d="M87.8344 71.8015C86.6346 73.0871 85.4004 74.3126 84.2477 75.6282C83.9011 76.1367 83.6136 76.683 83.3907 77.2566C84.0249 77.4451 84.7662 77.9422 85.2804 77.7665C87.8987 76.888 90.4527 75.8339 93.3281 74.724C92.7024 76.1638 92.231 77.4922 91.5668 78.7092C88.8305 83.3078 85.4038 87.4587 81.4066 91.0164C79.8868 92.4819 78.3084 93.8832 76.6715 95.2201C75.8046 95.9395 74.7622 96.4157 73.6509 96.6001C72.5396 96.7844 71.3992 96.6702 70.3465 96.2692C69.2938 95.8681 68.3665 95.1947 67.6595 94.3176C66.9525 93.4406 66.4912 92.3916 66.3227 91.2778C66.254 90.6585 66.3087 90.0317 66.4838 89.4337C66.6589 88.8357 66.9507 88.2784 67.3426 87.7939C73.174 81.4614 79.8384 75.9503 87.1531 71.4115C87.242 71.3771 87.3363 71.3582 87.4316 71.3558L87.8344 71.8015Z"
              fill="#FF87AF"/>
        <path d="M97.6724 54.7335L105.004 22.1659L110.147 23.37L107.494 31.4305C105.017 38.9296 102.51 46.4287 100.093 53.9364C99.6221 55.3248 99.0051 55.5819 97.6724 54.7335Z"
              fill="#FF6196"/>
        <path d="M89.3857 73.8885C90.1614 70.9274 90.9327 68.1892 91.5841 65.421C92.2189 62.7364 93.4263 60.2207 95.1236 58.0461C96.1649 56.6791 97.3348 57.2234 98.5304 57.519C99.636 57.789 99.9145 58.5989 99.9616 59.6616C100.136 62.6005 99.241 65.5031 97.4419 67.8335C95.3002 70.4887 92.5317 72.5695 89.3857 73.8885Z"
              fill="#FF6196"/>
        <path d="M119.944 3.83936C120.008 2.88498 119.983 1.92674 119.871 0.976845C119.783 0.711516 119.607 0.483621 119.374 0.329779C119.184 0.175101 118.961 0.0652523 118.723 0.00838844C118.585 -0.0173228 118.393 0.124089 118.208 0.325493C118.03 0.516698 117.878 0.731542 117.758 0.96399C117.65 1.37492 117.627 1.80359 117.69 2.22384V21.3873C112.023 21.7895 106.357 20.6022 101.329 17.9591C99.685 17.2161 98.3781 15.8856 97.6646 14.2286C96.951 12.5717 96.8824 10.7079 97.4722 9.00304C98.1107 6.59046 98.8178 4.19932 99.5462 1.81246C99.7177 1.24253 99.8162 0.655454 99.5462 0.321208C99.3961 0.158494 99.1888 0.0602123 98.9677 0.0469556C98.6847 0.0500088 98.4105 0.146413 98.1878 0.321208C97.8674 0.512888 97.6121 0.796593 97.4551 1.1354C96.598 3.70652 95.8438 6.30336 95.1882 8.9259C94.9407 9.95936 94.874 11.0279 94.9911 12.0841C95.1569 13.9952 95.8676 15.8186 97.0389 17.3377C98.2102 18.8569 99.7928 20.0081 101.599 20.6545C102.409 20.993 102.884 21.3273 102.657 22.3943C102.344 23.7484 102.04 25.1026 101.732 26.461C99.632 35.6656 97.5436 44.8745 95.4667 54.0877C95.4082 54.4985 95.2275 54.8822 94.9482 55.189C93.5793 56.2771 92.4291 57.6148 91.5586 59.1314C90.4493 61.1327 89.6817 63.3052 89.2875 65.5592C89.2118 66.2782 88.952 66.9655 88.5331 67.5548C88.1143 68.144 87.5505 68.6153 86.8963 68.9231C85.1094 69.8273 83.4682 70.9971 81.4841 72.2141C81.6164 69.8282 81.5906 67.4361 81.407 65.0535C81.256 64.3206 81.288 63.5618 81.5003 62.8442C81.7126 62.1267 82.0985 61.4725 82.624 60.9397C85.2375 58.3506 87.1005 55.1015 88.0148 51.538C88.2878 50.712 88.3627 49.8333 88.2333 48.9729C88.104 48.1126 87.774 47.2948 87.27 46.5856C86.7661 45.8764 86.1023 45.2957 85.3325 44.8905C84.5626 44.4853 83.7081 44.267 82.8382 44.2531C81.4298 44.2374 80.047 44.6304 78.8573 45.3844C74.7683 48.1767 70.7504 51.0715 66.8073 54.0663C64.4633 55.8318 62.2564 57.7858 59.9852 59.637C59.8873 59.5319 59.8025 59.4154 59.7324 59.2899C59.689 58.9744 59.604 58.6661 59.4796 58.3729C57.5812 55.4418 58.8968 53.3121 60.958 51.1223C63.1053 48.8714 64.2919 45.8727 64.2661 42.7619C64.3327 41.1769 63.8363 39.6194 62.8649 38.3653C62.3474 37.7286 61.7096 37.2001 60.988 36.8097C59.9629 36.2487 58.7908 36.0145 57.6289 36.1386C56.467 36.2627 55.3708 36.7391 54.4873 37.5039L53.2917 38.361C50.5621 40.315 47.7981 42.2177 45.1713 44.3089C41.3364 47.3705 37.5841 50.5341 33.9183 53.7963C32.2042 55.309 30.953 57.3744 29.1746 58.78C19.9014 66.1034 10.5297 73.294 1.1922 80.5317C0.871132 80.7232 0.575909 80.9551 0.313735 81.2216C0.286745 81.2606 0.263774 81.3023 0.245172 81.3459C0.0480521 81.8044 -0.119071 82.5629 0.112331 82.8414C0.169054 82.9019 0.23761 82.95 0.313735 82.9828C0.721934 83.1523 1.17623 83.175 1.5993 83.0471C2.15985 82.7563 2.67399 82.3837 3.12483 81.9415L29.2646 61.6811C29.7317 61.3168 30.2245 60.9869 30.7944 60.5755C30.9476 62.2831 31.5807 63.9125 32.6206 65.2757C33.6604 66.6388 35.0646 67.68 36.671 68.2791C38.2774 68.8782 40.0204 69.0107 41.6989 68.6614C43.3774 68.312 44.9229 67.4951 46.1569 66.3048C49.1565 63.4166 52.2547 60.6141 55.3101 57.773L56.4242 56.7274C58.2926 60.3827 58.104 61.3468 55.2329 63.648C37.5893 77.7663 19.9585 91.8875 2.34064 106.012C1.59073 106.611 0.108046 107.156 1.08079 108.433C2.05353 109.71 2.94914 108.394 3.69476 107.798C20.2242 94.5972 36.7423 81.3787 53.2489 68.1432C53.6774 67.8003 54.1273 67.4961 54.7487 67.0419V68.4303C54.6647 70.0345 55.0599 71.6275 55.8841 73.0064C56.7082 74.3853 57.924 75.4879 59.3767 76.1736C60.8007 76.897 62.4173 77.1503 63.9942 76.897C65.5711 76.6436 67.0271 75.8968 68.1528 74.7638C71.551 71.7642 74.9149 68.7045 78.2959 65.6792C78.5102 65.4863 78.7587 65.3406 79.153 65.0407C79.6367 67.9861 79.542 70.9975 78.8744 73.9068C78.7096 74.2936 78.4394 74.6262 78.0945 74.8667C75.3005 77.2807 72.4966 79.6847 69.6826 82.0787L28.4075 117.115C27.9243 117.437 27.4972 117.836 27.1434 118.297C27.0305 118.507 26.9672 118.741 26.9582 118.979C26.9493 119.217 26.9951 119.455 27.092 119.673C27.2856 119.818 27.5094 119.917 27.7468 119.964C27.9842 120.011 28.2291 120.004 28.4633 119.943C28.648 119.889 28.8181 119.794 28.9603 119.664C29.1746 119.493 29.3889 119.274 29.5817 119.099L59.4196 93.8158C60.8551 92.5988 62.3035 91.399 63.8162 90.1306C63.8928 90.3343 63.9544 90.5434 64.0005 90.7562C64.0861 92.4102 64.6556 94.0027 65.6383 95.3358C66.6211 96.669 67.9737 97.6842 69.5284 98.2553C71.0641 98.9225 72.7662 99.108 74.4096 98.7874C76.053 98.4669 77.5606 97.6552 78.733 96.4598C80.7213 94.6472 82.684 92.8045 84.6552 90.9705C85.9407 89.792 87.1834 88.6093 88.5376 87.3366C88.7898 88.2162 88.9944 89.1089 89.1503 90.0106C89.3473 92.1094 89.0578 94.2253 88.3042 96.1941C87.5506 98.1628 86.3532 99.9313 84.8051 101.362C79.8386 106.71 74.7606 111.942 69.7255 117.217C69.3955 117.56 68.9413 117.843 68.7613 118.25C68.5813 118.657 68.4657 119.454 68.6799 119.626L68.7399 119.664C69.1892 119.883 69.6945 119.959 70.1883 119.883C70.3267 119.854 70.45 119.777 70.5354 119.664C70.6554 119.54 70.7711 119.386 70.8868 119.27C74.9663 115.053 79.0672 110.858 83.1168 106.611C84.7513 104.955 86.288 103.205 87.7191 101.371C89.5851 99.3049 90.8224 96.7492 91.2855 94.0042C91.7486 91.2591 91.4181 88.439 90.3331 85.8754C90.2164 85.3037 90.3304 84.7092 90.6502 84.2213C90.9287 83.7413 91.2372 83.2742 91.5543 82.8114C92.569 81.494 93.4141 80.0544 94.0698 78.5262C95.3368 74.7758 97.2817 71.2898 99.8076 68.2417C100.969 66.7695 101.768 65.0448 102.14 63.207C102.512 61.3692 102.447 59.4696 101.95 57.6616C101.775 56.9741 101.775 56.2535 101.95 55.5661C104.119 48.8512 106.351 42.1577 108.562 35.4599L111.519 26.4867L112.432 23.7142C114.377 23.7142 116.211 23.6756 118.037 23.7142C119.554 23.757 120.017 23.0457 120 21.5715C119.91 15.658 119.944 9.74866 119.944 3.83936ZM43.9371 65.1435C42.9791 66.0304 41.7647 66.591 40.4683 66.745C39.1719 66.8989 37.86 66.6383 36.7208 66.0006C35.587 65.5162 34.631 64.6925 33.9842 63.6429C33.3373 62.5932 33.0314 61.369 33.1084 60.1384C33.2457 58.6271 33.8732 57.202 34.8953 56.0803C41.5388 49.7455 48.7368 44.019 56.4028 38.9695C56.8212 38.6737 57.2972 38.4693 57.7998 38.3696C58.1369 38.3074 58.4825 38.3074 58.8196 38.3696C59.2234 38.4482 59.6086 38.6023 59.9552 38.8238C60.656 39.2588 61.2224 39.8796 61.5916 40.6171C61.9607 41.3547 62.1182 42.1802 62.0464 43.0019C61.9576 45.1413 61.2092 47.2009 59.9038 48.8983C55.237 54.9207 49.878 60.3733 43.9371 65.1435ZM66.2202 73.4097C65.4752 74.1758 64.4966 74.6724 63.4385 74.8213C62.3803 74.9703 61.3027 74.7631 60.3752 74.2324C59.3988 73.7249 58.5678 72.977 57.9605 72.0593C57.3533 71.1416 56.9897 70.0844 56.9042 68.9874C56.8047 68.0401 56.9263 67.0828 57.2594 66.1905C57.5925 65.2982 58.1281 64.4954 58.8239 63.8451C65.3288 57.8454 72.3078 52.3811 79.6929 47.5056C79.9157 47.3642 80.1214 47.2228 80.3657 47.0771C81.0107 46.6114 81.7923 46.3734 82.5875 46.4005C83.3826 46.4277 84.1462 46.7185 84.758 47.2271C85.35 47.7285 85.7688 48.4038 85.955 49.157C86.1412 49.9101 86.0852 50.7028 85.795 51.4223C84.8607 54.5342 83.1364 57.351 80.7899 59.5985C76.0633 64.3208 71.1482 68.8674 66.2288 73.3925L66.2202 73.4097ZM91.5501 78.7276C88.8175 83.319 85.3967 87.4638 81.407 91.0176C79.8872 92.4831 78.3088 93.8844 76.6718 95.2214C75.8049 95.9408 74.7625 96.417 73.6512 96.6013C72.5399 96.7856 71.3996 96.6714 70.3469 96.2704C69.2942 95.8694 68.3669 95.1959 67.6599 94.3189C66.9529 93.4419 66.4915 92.3928 66.323 91.279C66.2543 90.6597 66.3091 90.0329 66.4842 89.435C66.6592 88.837 66.9511 88.2796 67.3429 87.7951C73.1743 81.4627 79.8387 75.9515 87.1534 71.4128C87.2424 71.3783 87.3366 71.3594 87.432 71.3571L87.8605 71.7856C86.6606 73.0712 85.4265 74.2967 84.2738 75.6123C83.9272 76.1208 83.6396 76.6671 83.4167 77.2407C84.0509 77.4292 84.7923 77.9263 85.3065 77.7506C87.3763 77.0564 89.4117 76.2508 91.5929 75.3937L93.3541 74.7081C92.6942 76.1651 92.2228 77.4935 91.5586 78.7105L91.5501 78.7276ZM97.4336 67.8646C95.8352 69.8996 93.8317 71.5806 91.5501 72.8012C90.8444 73.1954 90.1202 73.564 89.3775 73.9068C90.1402 70.9885 90.903 68.2846 91.5501 65.5506L91.5758 65.4392C92.2106 62.7546 93.418 60.2389 95.1153 58.0644C96.1566 56.6974 97.3265 57.2416 98.5221 57.5373C99.6277 57.8073 99.9062 58.6172 99.9533 59.6799C100.129 62.6162 99.2372 65.5171 97.4422 67.8475L97.4336 67.8646ZM107.461 31.4404C104.984 38.9395 102.477 46.4386 100.06 53.9463C99.6062 55.3561 98.9892 55.6132 97.6565 54.7648L104.011 26.5124L104.988 22.1758L110.131 23.3799L109.098 26.5124L107.461 31.4404Z"
              fill="black"/>
    </g>


    <!--    //TODO main-->
    <g id="main_html">
        <path fill-rule="evenodd" clip-rule="evenodd"
              d="M18.3125 42.0645L27.2623 6.6875L31.4375 7.87241L22.4878 43.3125L18.3125 42.0645Z" fill="#04C3EF"/>
        <path fill-rule="evenodd" clip-rule="evenodd"
              d="M13.5025 12.6875L16.5625 15.9278L7.99501 25.0001L16.5625 34.0721L13.5025 37.3125L1.875 25.0001L13.5025 12.6875Z"
              fill="#04C3EF"/>
        <path fill-rule="evenodd" clip-rule="evenodd"
              d="M36.4976 12.6875L33.4375 15.9278L42.0051 25.0001L33.4375 34.0721L36.4976 37.3125L48.125 25.0001L36.4976 12.6875Z"
              fill="#04C3EF"/>
    </g>

    <g id='main-ts'>
        <path d="M5 25V45H45V5H5V25ZM37.235 23.4067C38.2517 23.66 39.025 24.1117 39.7367 24.8483C40.105 25.2417 40.6517 25.9583 40.695 26.1317C40.7083 26.1817 38.9683 27.3483 37.915 28.0033C37.8767 28.0283 37.7233 27.8633 37.5533 27.61C37.0367 26.86 36.4983 26.5367 35.6733 26.48C34.46 26.3967 33.68 27.0317 33.6867 28.0917C33.6756 28.3523 33.7343 28.6112 33.8567 28.8417C34.1233 29.3933 34.62 29.725 36.1733 30.3967C39.0383 31.63 40.2633 32.4417 41.025 33.5967C41.875 34.885 42.0667 36.9433 41.4883 38.4733C40.855 40.1367 39.28 41.2667 37.0633 41.64C36.3783 41.7617 34.7533 41.7433 34.0167 41.61C32.41 41.3233 30.8867 40.53 29.9467 39.4883C29.5783 39.0833 28.86 38.0217 28.905 37.9467C28.9233 37.92 29.0883 37.8183 29.2717 37.7117C29.4517 37.61 30.1233 37.2217 30.7583 36.8533L31.9083 36.1867L32.15 36.5433C32.4867 37.0567 33.2217 37.7617 33.6667 37.9967C34.9433 38.67 36.695 38.575 37.5583 37.8C37.7319 37.6538 37.8694 37.4693 37.9599 37.2612C38.0504 37.053 38.0915 36.8267 38.08 36.6C38.08 36.1367 38.0217 35.9333 37.78 35.5833C37.47 35.14 36.835 34.7667 35.0317 33.9833C32.9683 33.095 32.08 32.5433 31.2667 31.6667C30.759 31.0881 30.3841 30.4055 30.1683 29.6667C30.0167 29.1017 29.9783 27.685 30.0983 27.115C30.5233 25.12 32.0283 23.7317 34.2 23.3183C34.905 23.185 36.5433 23.235 37.235 23.4067ZM27.845 25.0767L27.8583 26.715H22.65V41.5083H18.9667V26.715H13.7633V25.1083C13.7633 24.2183 13.7817 23.475 13.8067 23.4583C13.8267 23.4317 16.995 23.4183 20.835 23.425L27.8267 23.445L27.845 25.0767Z"
              fill="#04C3EF"/>
    </g>

    <g id='main-js' fill="#04C3EF" >
        <path style=" stroke:none;fill-rule:nonzero;fill:rgb(4,195,239);fill-opacity:1;" d="M 32.5 15 C 32.5 13.621094 33.621094 12.5 35 12.5 L 42.5 12.5 C 43.878906 12.5 45 13.621094 45 15 C 45 16.378906 43.878906 17.5 42.5 17.5 L 38 17.5 C 37.722656 17.5 37.5 17.722656 37.5 18 L 37.5 22 C 37.5 22.277344 37.722656 22.5 38 22.5 L 42.5 22.5 C 43.878906 22.5 45 23.621094 45 25 L 45 32.5 C 45 33.164062 44.738281 33.800781 44.269531 34.269531 L 36.769531 41.769531 C 35.792969 42.742188 34.207031 42.742188 33.230469 41.769531 C 32.257812 40.792969 32.257812 39.207031 33.230469 38.230469 L 39.851562 31.609375 C 39.945312 31.515625 40 31.390625 40 31.257812 L 40 28 C 40 27.722656 39.777344 27.5 39.5 27.5 L 35 27.5 C 33.621094 27.5 32.5 26.378906 32.5 25 Z M 32.5 15 "/>
        <path style=" stroke:none;fill-rule:nonzero;rgb(4,195,239);fill-opacity:1;" d="M 27.5 15 C 27.5 13.621094 26.378906 12.5 25 12.5 C 23.621094 12.5 22.5 13.621094 22.5 15 L 22.5 32.757812 C 22.5 33.203125 21.960938 33.425781 21.644531 33.109375 L 20.144531 31.609375 C 20.050781 31.515625 20 31.390625 20 31.257812 L 20 30 C 20 28.621094 18.878906 27.5 17.5 27.5 C 16.121094 27.5 15 28.621094 15 30 L 15 32.5 C 15 33.164062 15.261719 33.800781 15.730469 34.269531 L 23.230469 41.769531 C 23.945312 42.484375 25.023438 42.695312 25.957031 42.308594 C 26.890625 41.921875 27.5 41.011719 27.5 40 Z M 27.5 15 "/>
        <path style=" stroke:none;fill-rule:evenodd;fill:rgb(4,195,239),5.882353%);fill-opacity:1;" d="M 3.339844 11.0625 C 2.695312 6.542969 6.199219 2.5 10.765625 2.5 L 49.234375 2.5 C 53.800781 2.5 57.304688 6.542969 56.660156 11.0625 L 52.738281 38.519531 C 52.484375 40.292969 51.601562 41.921875 50.25 43.101562 L 34.9375 56.5 C 32.109375 58.976562 27.890625 58.976562 25.0625 56.5 L 9.75 43.101562 C 8.398438 41.921875 7.515625 40.292969 7.261719 38.519531 Z M 10.765625 7.5 C 9.242188 7.5 8.074219 8.847656 8.289062 10.355469 L 12.210938 37.8125 C 12.296875 38.402344 12.589844 38.945312 13.042969 39.339844 L 28.355469 52.738281 C 29.296875 53.5625 30.703125 53.5625 31.644531 52.738281 L 46.957031 39.339844 C 47.410156 38.945312 47.703125 38.402344 47.789062 37.8125 L 51.710938 10.355469 C 51.925781 8.847656 50.757812 7.5 49.234375 7.5 Z M 10.765625 7.5 "/>
    </g>

<!--    TODO Works-->
    <g id='arrow' fill="#04C3EF" >
        <path d="M0 5H13M13 5L10.0286 9M13 5L10.0286 1" stroke="#E2A100" />
    </g>


<!--    TODO Contact-->
    <g id="face" fill="#04C3EF">
        <path style=" stroke:none;fill-rule:evenodd;fill-opacity:1;" d="M 23.640625 40 L 23.640625 22 L 29.105469 22 L 30 14 L 23.640625 14 L 23.640625 10.105469 C 23.640625 8.042969 23.695312 6 26.574219 6 L 29.488281 6 L 29.488281 0.28125 C 29.488281 0.195312 26.984375 0 24.453125 0 C 19.160156 0 15.847656 3.3125 15.847656 9.398438 L 15.847656 14 L 10 14 L 10 22 L 15.847656 22 L 15.847656 40 Z M 23.640625 40 "/>
    </g>

    <g id="telegram" fill="#04C3EF">
        <path style=" stroke:none;fill-rule:nonzero;fill-opacity:1;" d="M 37.109375 4.046875 C 36.140625 3.242188 34.808594 3.035156 33.644531 3.507812 L 3.777344 15.566406 C 2.46875 16.101562 1.628906 17.394531 1.667969 18.808594 C 1.707031 20.21875 2.613281 21.464844 3.949219 21.929688 L 9.992188 24.03125 L 13.359375 35.167969 C 13.40625 35.316406 13.472656 35.457031 13.558594 35.585938 C 13.570312 35.605469 13.585938 35.621094 13.601562 35.640625 C 13.699219 35.777344 13.820312 35.898438 13.953125 36 C 13.992188 36.03125 14.027344 36.058594 14.070312 36.082031 C 14.226562 36.1875 14.402344 36.265625 14.589844 36.308594 L 14.609375 36.3125 L 14.617188 36.316406 C 14.730469 36.339844 14.84375 36.351562 14.957031 36.351562 C 14.96875 36.351562 14.976562 36.34375 14.988281 36.34375 C 15.15625 36.34375 15.328125 36.3125 15.488281 36.257812 C 15.527344 36.246094 15.558594 36.222656 15.59375 36.207031 C 15.714844 36.160156 15.832031 36.09375 15.9375 36.019531 C 16.019531 35.945312 16.105469 35.875 16.191406 35.804688 L 20.691406 30.832031 L 27.410156 36.035156 C 28 36.496094 28.730469 36.746094 29.480469 36.746094 C 31.097656 36.746094 32.492188 35.609375 32.824219 34.023438 L 38.261719 7.332031 C 38.515625 6.105469 38.070312 4.84375 37.109375 4.046875 Z M 15.617188 24.5625 C 15.386719 24.789062 15.226562 25.085938 15.164062 25.402344 L 14.648438 27.910156 L 13.339844 23.589844 L 20.117188 20.058594 Z M 29.453125 33.398438 L 21.515625 27.25 C 20.828125 26.71875 19.84375 26.804688 19.257812 27.449219 L 17.816406 29.042969 L 18.328125 26.5625 L 30.132812 14.757812 C 30.714844 14.175781 30.785156 13.257812 30.296875 12.59375 C 29.8125 11.929688 28.914062 11.722656 28.183594 12.101562 L 11.242188 20.925781 L 5.035156 18.652344 L 35 6.664062 Z M 29.453125 33.398438 "/>

    </g>

    <g id="linkedin" fill="#04C3EF">
        <path style=" stroke:none;fill-rule:evenodd; fill-opacity:1;" d="M 9.101562 39.078125 L 9.101562 13.332031 L 0.546875 13.332031 L 0.546875 39.078125 Z M 4.824219 9.816406 C 7.808594 9.816406 9.664062 7.839844 9.664062 5.367188 C 9.609375 2.84375 7.808594 0.921875 4.878906 0.921875 C 1.953125 0.921875 0.0390625 2.84375 0.0390625 5.367188 C 0.0390625 7.839844 1.894531 9.816406 4.769531 9.816406 Z M 13.835938 39.078125 C 13.835938 39.078125 13.949219 15.75 13.835938 13.332031 L 22.394531 13.332031 L 22.394531 17.066406 L 22.339844 17.066406 C 23.464844 15.308594 25.492188 12.726562 30.109375 12.726562 C 35.738281 12.726562 39.960938 16.40625 39.960938 24.316406 L 39.960938 39.078125 L 31.402344 39.078125 L 31.402344 25.304688 C 31.402344 21.84375 30.164062 19.484375 27.066406 19.484375 C 24.703125 19.484375 23.296875 21.074219 22.675781 22.613281 C 22.449219 23.160156 22.394531 23.929688 22.394531 24.699219 L 22.394531 39.078125 Z M 13.835938 39.078125 "/>
    </g>


    <g id="email" fill="#04C3EF">
        <path style=" stroke:none;fill-rule:evenodd;fill-opacity:1;" d="M 36 9.582031 L 20 23.636719 L 4 9.5625 L 4 9 L 36 9 Z M 4 31 L 4 14.890625 L 20 28.960938 L 36 14.90625 L 36 31 Z M 0 35 L 40 35 L 40 5 L 0 5 Z M 0 35 "/>
    </g>


</svg>
