<?xml version="1.0" standalone="no"?>
<!DOCTYPE svg PUBLIC "-//W3C//DTD SVG 20010904//EN"
 "http://www.w3.org/TR/2001/REC-SVG-20010904/DTD/svg10.dtd">
<svg version="1.0" xmlns="http://www.w3.org/2000/svg"
 width="213.000000pt" height="209.000000pt" viewBox="0 0 213.000000 209.000000"
 preserveAspectRatio="xMidYMid meet">

<g transform="translate(0.000000,209.000000) scale(0.100000,-0.100000)"
   fill="#fcba03" stroke="none">
<path d="M567 1726 c-49 -18 -64 -32 -89 -80 -18 -34 -22 -69 -29 -211 -4 -93
-13 -188 -19 -209 -15 -50 -59 -92 -105 -100 l-35 -7 0 -57 0 -57 49 -18 c84
-30 111 -105 111 -317 0 -58 5 -125 11 -149 21 -94 86 -140 197 -141 l62 0 0
50 0 50 -37 0 c-49 0 -85 19 -101 52 -7 16 -16 95 -21 191 -6 128 -12 172 -28
207 -19 43 -92 120 -113 120 -20 0 -9 16 28 38 78 48 112 135 112 287 0 126
15 214 39 238 12 13 38 22 70 25 l51 5 0 48 0 49 -57 0 c-32 -1 -75 -7 -96
-14z"/>
<path d="M1410 1691 l0 -48 45 -6 c84 -9 105 -51 105 -211 0 -186 28 -274 107
-331 23 -16 42 -32 42 -35 0 -3 -18 -17 -40 -33 -79 -55 -98 -108 -108 -317
-5 -87 -13 -166 -21 -181 -15 -32 -48 -49 -95 -49 l-35 0 0 -50 0 -50 53 0
c76 0 121 16 156 55 42 48 52 95 60 285 5 101 13 175 21 190 23 45 54 71 97
82 l43 10 0 58 c0 58 0 58 -34 64 -19 4 -46 16 -60 27 -50 39 -59 72 -67 249
-4 91 -12 184 -18 206 -23 87 -91 133 -193 134 l-58 0 0 -49z"/>
<path d="M997 1555 c-90 -34 -173 -123 -197 -210 -28 -100 12 -220 99 -296 24
-21 48 -39 52 -39 5 0 9 -6 9 -14 0 -16 -83 -66 -109 -66 -10 0 -60 36 -111
79 -71 60 -98 77 -107 69 -7 -6 -13 -14 -13 -19 0 -4 40 -43 90 -86 49 -42 90
-84 90 -93 0 -9 -8 -24 -18 -34 -24 -21 -71 -114 -74 -146 -3 -22 6 -29 71
-62 105 -51 180 -68 312 -68 97 0 122 4 202 30 92 31 207 93 207 111 0 6 -12
35 -27 66 -34 70 -116 151 -182 182 -57 27 -63 41 -25 62 43 22 111 106 128
156 48 141 -17 292 -157 365 -54 28 -183 35 -240 13z m288 -181 c26 -10 45
-59 45 -114 0 -44 -5 -56 -29 -81 l-29 -29 -177 0 -177 0 -29 29 c-26 26 -29
36 -29 91 0 51 4 65 25 85 24 25 26 25 204 25 99 0 187 -3 196 -6z"/>
<path d="M976 1294 c-19 -18 -20 -28 -6 -55 22 -40 80 -6 63 38 -13 34 -34 41
-57 17z"/>
<path d="M1148 1286 c-12 -28 -5 -54 17 -62 35 -14 61 46 33 74 -19 19 -37 14
-50 -12z"/>
</g>
</svg>
